<?xml version="1.0" encoding="utf-8"?>
<!-- Generator: Adobe Illustrator 22.0.1, SVG Export Plug-In . SVG Version: 6.00 Build 0)  -->
<svg version="1.1"
	 id="svg147969" inkscape:version="0.48.4 r9939" sodipodi:docname="Moskwa Metro Line 10.svg" xmlns:cc="http://creativecommons.org/ns#" xmlns:dc="http://purl.org/dc/elements/1.1/" xmlns:inkscape="http://www.inkscape.org/namespaces/inkscape" xmlns:rdf="http://www.w3.org/1999/02/22-rdf-syntax-ns#" xmlns:sodipodi="http://sodipodi.sourceforge.net/DTD/sodipodi-0.dtd" xmlns:svg="http://www.w3.org/2000/svg"
	 xmlns="http://www.w3.org/2000/svg" xmlns:xlink="http://www.w3.org/1999/xlink" x="0px" y="0px" viewBox="0 0 200 200"
	 style="enable-background:new 0 0 200 200;" xml:space="preserve">
<style type="text/css">
	.st0{fill:#D8D8D8;}
</style>
<g>
	<path class="st0" d="M99.9,200c55.2,0,100.1-44.7,100.1-99.9C200,44.7,155.1,0,99.9,0C44.3,0,0,44.7,0,100.1
		C0,155.3,44.3,200,99.9,200"/>
	<path id="path2995" inkscape:connector-curvature="0" d="M50.5,107.1V64l-8.9-0.1l-8.9-0.1l2.2-6.1c1.2-3.3,2.5-7.1,3-8.2l0.8-2.2
		H54h15.5v51.5v51.5H60h-9.5C50.5,150.3,50.5,107.1,50.5,107.1z"/>
	<g id="g2994">
		<g id="g2991">
			<path id="path2989" inkscape:connector-curvature="0" d="M121,151.5c-5.8-1.2-12-4.2-17.1-8.3c-4.9-4-10-12.5-12-19.9
				c-1.4-5.4-1.3-17.6,0.2-23c2.3-8.1,7.4-17.2,15.6-28c3.7-4.8,18.1-22.9,19.8-24.7c0.5-0.6,2.2-0.5,10.2,0.2
				c5.3,0.5,9.8,1,10.1,1.2c0.4,0.2-5,6.9-14.3,17.7c-8.2,9.5-14.8,17.4-14.7,17.5c0.1,0.1,1.9-0.3,3.9-1
				c10.4-3.3,19.3-2.4,28.2,2.8c11.4,6.7,17.5,19.1,16.2,33.1c-1.5,16.1-13.5,28.9-30.2,32C133,152.1,124.4,152.2,121,151.5
				L121,151.5z M137.5,133.6c6.4-2.8,10.3-9.2,10.3-16.9c0-6-1.6-10.3-5.2-13.9c-7-7-19-6.9-26.1,0.3c-8.8,8.9-6.2,25,4.9,30.4
				C125.8,135.6,132.8,135.7,137.5,133.6L137.5,133.6L137.5,133.6z"/>
		</g>
	</g>
</g>
</svg>
